<?xml version="1.0"?>
<svg xmlns="http://www.w3.org/2000/svg" xmlns:xlink="http://www.w3.org/1999/xlink" xmlns:svgjs="http://svgjs.com/svgjs" version="1.1" width="512" height="512" x="0" y="0" viewBox="0 0 512 512" style="enable-background:new 0 0 512 512" xml:space="preserve" class=""><g>
<g xmlns="http://www.w3.org/2000/svg">
	<g>
		<path d="M511.948,277.335c-0.414-7.399-3.303-14.672-8.668-20.315c-66.029-69.438-153.852-107.688-247.291-107.688    c-93.428,0-181.251,38.25-247.27,107.688c-5.365,5.643-8.254,12.916-8.668,20.314c-0.483,8.635,2.406,17.439,8.668,24.02    l49.173,51.74c11.564,12.146,32.087,12.146,43.651,0c16.45-17.302,35.15-31.563,55.486-42.333    c10.189-5.25,16.773-16.302,16.679-26.75l7.438-56.063c54.444-17.375,95.814-17.385,149.716-0.01l7.334,54.667    c0,11.823,6.272,22.615,16.523,28.25c20.44,10.823,39.14,25.083,55.601,42.375c5.782,6.094,13.533,9.438,21.826,9.438    c8.282,0,16.033-3.344,21.815-9.427l49.319-51.875C509.542,294.778,512.431,285.971,511.948,277.335z" fill="#ffffff" data-original="#000000" style="" class=""/>
	</g>
</g>
<g xmlns="http://www.w3.org/2000/svg">
</g>
<g xmlns="http://www.w3.org/2000/svg">
</g>
<g xmlns="http://www.w3.org/2000/svg">
</g>
<g xmlns="http://www.w3.org/2000/svg">
</g>
<g xmlns="http://www.w3.org/2000/svg">
</g>
<g xmlns="http://www.w3.org/2000/svg">
</g>
<g xmlns="http://www.w3.org/2000/svg">
</g>
<g xmlns="http://www.w3.org/2000/svg">
</g>
<g xmlns="http://www.w3.org/2000/svg">
</g>
<g xmlns="http://www.w3.org/2000/svg">
</g>
<g xmlns="http://www.w3.org/2000/svg">
</g>
<g xmlns="http://www.w3.org/2000/svg">
</g>
<g xmlns="http://www.w3.org/2000/svg">
</g>
<g xmlns="http://www.w3.org/2000/svg">
</g>
<g xmlns="http://www.w3.org/2000/svg">
</g>
</g></svg>
