<svg xmlns="http://www.w3.org/2000/svg" width="16.552" height="30" viewBox="0 0 16.552 30">
  <g id="microphone" transform="translate(-13)" opacity="0.3">
    <path id="Path_9" data-name="Path 9" d="M29.034,28a.517.517,0,0,0-.517.517v3.1a7.241,7.241,0,0,1-14.483,0v-3.1a.517.517,0,0,0-1.034,0v3.1a8.279,8.279,0,0,0,7.759,8.249v2.613H18.172a.517.517,0,1,0,0,1.034h6.207a.517.517,0,1,0,0-1.034H21.793V39.87a8.28,8.28,0,0,0,7.759-8.249v-3.1A.517.517,0,0,0,29.034,28Z" transform="translate(0 -13.517)"/>
    <path id="Path_10" data-name="Path 10" d="M23.69,23.793a5.7,5.7,0,0,0,5.69-5.69V5.69A5.69,5.69,0,0,0,18,5.69V18.1A5.7,5.7,0,0,0,23.69,23.793Z" transform="translate(-2.414)"/>
  </g>
</svg>
