<svg xmlns="http://www.w3.org/2000/svg" width="42.419" height="42.419" viewBox="0 0 42.419 42.419">
  <g id="send" transform="translate(-47.728 -0.067) rotate(45)">
    <g id="Group_16" data-name="Group 16" transform="translate(48.791 -48.695)">
      <path id="Path_11" data-name="Path 11" d="M30,.664a.643.643,0,0,0-.031-.15C29.96.5,29.954.47,29.948.451a.756.756,0,0,0-.125-.188.756.756,0,0,0-.188-.125A.238.238,0,0,0,29.572.12.629.629,0,0,0,29.422.1h-.069a.574.574,0,0,0-.175.031c-.012.006-.025.006-.038.012h-.006L.378,12.632a.626.626,0,0,0-.325.825.6.6,0,0,0,.281.3l10.455,5.534,5.54,10.455a.633.633,0,0,0,.55.338H16.9a.632.632,0,0,0,.55-.375L29.954.958V.952c.006-.012.006-.025.012-.038A.542.542,0,0,0,30,.739.3.3,0,0,0,30,.664ZM2.072,13.251,26.627,2.577,11.145,18.053ZM16.835,28.014l-4.8-9.073L27.509,3.459Z" transform="translate(0 -0.095)" fill="#49a1ef"/>
    </g>
  </g>
</svg>
