<svg xmlns="http://www.w3.org/2000/svg" width="30" height="30" viewBox="0 0 30 30">
  <g id="smile" opacity="0.3">
    <g id="Group_18" data-name="Group 18">
      <g id="Group_17" data-name="Group 17">
        <path id="Path_12" data-name="Path 12" d="M15,0A15,15,0,1,0,30,15,15.017,15.017,0,0,0,15,0Zm0,28.75A13.75,13.75,0,1,1,28.75,15,13.766,13.766,0,0,1,15,28.75Z"/>
      </g>
    </g>
    <g id="Group_20" data-name="Group 20" transform="translate(7.5 8.75)">
      <g id="Group_19" data-name="Group 19">
        <path id="Path_13" data-name="Path 13" d="M129.875,149.333a1.875,1.875,0,1,0,1.875,1.875A1.877,1.877,0,0,0,129.875,149.333Zm0,2.5a.625.625,0,1,1,.625-.625A.626.626,0,0,1,129.875,151.833Z" transform="translate(-128 -149.333)"/>
      </g>
    </g>
    <g id="Group_22" data-name="Group 22" transform="translate(18.75 8.75)">
      <g id="Group_21" data-name="Group 21">
        <path id="Path_14" data-name="Path 14" d="M321.875,149.333a1.875,1.875,0,1,0,1.875,1.875A1.877,1.877,0,0,0,321.875,149.333Zm0,2.5a.625.625,0,1,1,.625-.625A.626.626,0,0,1,321.875,151.833Z" transform="translate(-320 -149.333)"/>
      </g>
    </g>
    <g id="Group_24" data-name="Group 24" transform="translate(4.218 17.5)">
      <g id="Group_23" data-name="Group 23">
        <path id="Path_15" data-name="Path 15" d="M93.433,298.92a.624.624,0,0,0-.5-.254H72.618a.624.624,0,0,0-.6.809,11.251,11.251,0,0,0,21.506,0A.624.624,0,0,0,93.433,298.92Zm-10.659,7.246a9.939,9.939,0,0,1-9.273-6.25H92.047A9.939,9.939,0,0,1,82.774,306.166Z" transform="translate(-71.993 -298.666)"/>
      </g>
    </g>
  </g>
</svg>
